<?xml version="1.0" encoding="utf-8"?>
<!-- Generator: Adobe Illustrator 23.0.3, SVG Export Plug-In . SVG Version: 6.00 Build 0)  -->
<svg version="1.1" id="Livello_1" xmlns="http://www.w3.org/2000/svg" xmlns:xlink="http://www.w3.org/1999/xlink" x="0px" y="0px"
	 viewBox="0 0 3333.33 1438.46" style="enable-background:new 0 0 3333.33 1438.46;" xml:space="preserve">
<style type="text/css">
	.st0{fill:#191918;}
	.st1{fill:#FF7E65;}
	.st2{fill:#FFFFFF;}
</style>
<g>
	<path class="st0" d="M1653.71,645.06h107.85v491.78h-107.85V645.06z"/>
	<path class="st0" d="M2000.19,763.38c47.82,0,86.56,18.15,113.09,39.44l4.54-27.92h91.79v361.94h-91.79l-4.89-27.57
		c-26.88,21.29-65.62,39.09-112.74,39.09c-118.32,0-194.06-86.21-194.06-192.32C1806.13,850.29,1881.17,763.38,2000.19,763.38z
		 M2010.66,1056.21c53.4,0,96.33-39.79,96.33-100.52c0-59.34-43.28-99.47-96.68-99.47c-54.1,0-96.33,39.79-96.33,99.47
		C1913.98,1016.08,1957.26,1056.21,2010.66,1056.21z"/>
	<path class="st0" d="M2357.06,1023.76c1.75,21.64,24.78,36.65,56.19,36.65c40.49,0,57.94-11.52,57.94-30.71
		c0-23.38-33.86-26.53-95.98-40.14c-42.58-8.38-111.69-24.08-111.69-107.5c0-73.99,52.7-118.67,163.35-118.67
		c90.75,0,145.55,49.21,145.55,120.42l-108.2-0.35c-1.4-17.8-17.45-32.46-45.03-32.46c-32.81,0-48.51,14.31-48.17,30.02
		c0,18.85,20.94,23.38,70.16,30.37c76.44,13.26,142.75,31.41,142.75,110.99c0,86.91-72.6,126.7-174.86,126.7
		c-111.34,0-158.11-65.97-158.11-125.65L2357.06,1023.76z"/>
	<path class="st0" d="M2728.38,1023.76c1.75,21.64,24.78,36.65,56.19,36.65c40.49,0,57.94-11.52,57.94-30.71
		c0-23.38-33.86-26.53-95.98-40.14c-42.58-8.38-111.69-24.08-111.69-107.5c0-73.99,52.7-118.67,163.35-118.67
		c90.75,0,145.54,49.21,145.54,120.42l-108.2-0.35c-1.4-17.8-17.45-32.46-45.02-32.46c-32.81,0-48.52,14.31-48.17,30.02
		c0,18.85,20.94,23.38,70.15,30.37c76.44,13.26,142.75,31.41,142.75,110.99c0,86.91-72.6,126.7-174.86,126.7
		c-111.34,0-158.11-65.97-158.11-125.65L2728.38,1023.76z"/>
	<path class="st1" d="M106.1,1023.76c1.75,21.64,24.78,36.65,56.19,36.65c40.49,0,57.94-11.52,57.94-30.71
		c0-23.38-33.86-26.53-95.98-40.14c-42.58-8.38-111.69-24.08-111.69-107.5c0-73.99,52.7-118.67,163.35-118.67
		c90.75,0,145.55,49.21,145.55,120.42l-108.2-0.35c-1.4-17.8-17.45-32.46-45.02-32.46c-32.81,0-48.52,14.31-48.17,30.02
		c0,18.85,20.94,23.38,70.15,30.37c76.44,13.26,142.75,31.41,142.75,110.99c0,86.91-72.6,126.7-174.86,126.7
		C46.77,1149.06,0,1083.09,0,1023.41L106.1,1023.76z"/>
	<path class="st1" d="M631.01,964.07V774.9h108.2v192.66c0,131.93-79.23,180.8-184.99,180.8s-184.99-48.86-184.99-180.8V774.9h108.2
		v189.17c0,69.11,28.97,91.45,76.79,91.45C601.69,1055.52,631.01,1033.53,631.01,964.07z"/>
	<path class="st1" d="M1159.48,1136.84h-108.55V945.22c0-67.01-29.32-89-71.2-89c-53.4,0-86.56,41.88-86.56,98.78v181.84H785.32
		V774.9h86.91l6.63,27.57c30.02-21.29,73.3-39.09,116.58-39.09c115.18,0,164.04,68.06,164.04,179.4V1136.84z"/>
	<path class="st0" d="M1394.76,763.38c49.56,0,89,19.55,115.53,41.53l6.63-30.02h87.26v334.37c0,108.55-70.85,185.33-194.76,185.33
		c-131.24,0-180.8-75.39-184.99-142.06h102.61c9.42,28.97,33.51,52.7,82.02,52.7c72.6,0,89-56.19,89-89.7v-11.87
		c-27.57,21.29-65.97,38.39-113.78,38.39c-108.2,0-183.59-79.93-183.59-186.03C1200.7,850.29,1275.39,763.38,1394.76,763.38z
		 M1405.23,1056.21c53.4,0,95.98-39.79,95.98-100.52c0-59.34-42.93-99.47-96.33-99.47c-54.1,0-96.33,39.79-96.33,99.47
		C1308.55,1016.08,1351.83,1056.21,1405.23,1056.21z"/>
	<path class="st1" d="M877.99,0c-14.17,0-25.75,11.54-25.75,25.75v154.31c0,14.17,11.57,25.58,25.75,25.58
		c14.17,0,25.75-11.41,25.75-25.58V25.75C903.73,11.54,892.16,0,877.99,0L877.99,0z M877.99,0"/>
	<path class="st1" d="M1296.22,378.92c6.52,0,13.18-2.51,18.19-7.52l147.4-147.53c10.06-10.06,10.06-26.26,0-36.29
		c-10.03-10.06-26.23-10.06-36.29,0l-147.53,147.4c-10.03,10.03-10.03,26.36,0,36.42C1283.04,376.41,1289.56,378.92,1296.22,378.92
		L1296.22,378.92z M1296.22,378.92"/>
	<path class="st1" d="M330.45,187.58c-10.06-10.06-26.26-10.06-36.29,0c-10.06,10.03-10.06,26.23,0,36.29l147.4,147.53
		c5.01,5.01,11.67,7.52,18.19,7.52c6.65,0,13.18-2.51,18.23-7.52c10.03-10.06,10.03-26.39,0-36.42L330.45,187.58z M330.45,187.58"/>
	<path class="st1" d="M248.45,544.77l71.58,28.9c3.12,1.38,6.4,1.86,9.55,1.86c10.29,0,19.83-6.01,23.85-16.07
		c5.4-13.18-1.03-28.12-14.21-33.4l-71.55-28.99c-13.18-5.27-28.12,1.13-33.4,14.3C229.01,524.43,235.28,539.5,248.45,544.77
		L248.45,544.77z M248.45,544.77"/>
	<path class="st1" d="M646.95,252.73c3.28,0,6.78-0.61,10.06-1.99c13.05-5.66,19.09-20.73,13.56-33.78l-30.15-71.07
		c-5.5-13.05-20.57-19.22-33.65-13.56c-13.05,5.53-19.19,20.6-13.66,33.65l30.12,71.06C627.37,246.85,636.92,252.73,646.95,252.73
		L646.95,252.73z M646.95,252.73"/>
	<path class="st1" d="M1099.47,248.71c10.16,0,19.83-6.01,23.85-16.07l28.99-71.55c5.27-13.08-1.13-28.12-14.3-33.39
		c-13.05-5.4-28.12,1-33.4,14.17l-28.9,71.58c-5.4,13.18,1.03,28.12,14.21,33.4C1093.05,248.23,1096.33,248.71,1099.47,248.71
		L1099.47,248.71z M1099.47,248.71"/>
	<path class="st1" d="M879.35,261.42c-262.45,0-478.95,185.48-510.12,439.51c0,0,612.17,0,635.72,0c1.81,0,3.61,0.02,5.4,0.05
		c0.17,0,0.35,0,0.52,0c71.22,0,137.11,25.83,185.54,72.74c0.4,0.39,0.79,0.79,1.19,1.18c1.31-1.43,2.64-2.85,3.98-4.25
		c24.07-25.04,52.78-44.53,85.35-57.95c30.83-12.7,64.32-19.58,99.68-20.5C1346.85,447.91,1134.89,261.42,879.35,261.42z
		 M553,605.19c-3.17,11.2-13.2,19.06-24.84,19.06h-1.42c-17.57,0-29.95-17.22-24.42-33.9c48.03-144.93,185.86-244.71,348.44-244.71
		c9.16,0,18.24,0.35,27.23,1.01C722.35,357.75,593.88,460.85,553,605.19z"/>
	<path class="st1" d="M1507.39,544.77c13.18-5.27,19.45-20.34,14.17-33.4c-5.27-13.18-20.22-19.57-33.4-14.3l-71.55,28.99
		c-13.18,5.27-19.61,20.22-14.21,33.4c4.02,10.06,13.56,16.07,23.85,16.07c3.15,0,6.43-0.48,9.55-1.86L1507.39,544.77
		L1507.39,544.77z M1507.39,544.77"/>
</g>
</svg>
