<svg version="1.2" baseProfile="tiny-ps" xmlns="http://www.w3.org/2000/svg" viewBox="0 0 2395 1800" width="2395" height="1800">
	<title>img-svg</title>
	<style>
		tspan { white-space:pre }
		.shp0 { fill: #d6b49a;stroke: #000000;stroke-linejoin:round } 
		.shp1 { fill: #020202;stroke: #000000 } 
		.shp2 { fill: #818181;stroke: #191818 } 
		.shp3 { fill: #dcdbda;stroke: #000000 } 
		.shp4 { fill: #4ea7f1;stroke: #000000 } 
		.shp5 { fill: #f8f3ed;stroke: #000000 } 
		.shp6 { fill: #333333;stroke: #191818 } 
		.shp7 { fill: none;stroke: #191818;stroke-linejoin:round } 
		.shp8 { fill: #f8f59c;stroke: #191818 } 
		.shp9 { fill: #f3d2c9;stroke: #000000 } 
		.shp10 { fill: #f3d2c9;stroke: #000000;stroke-linejoin:round } 
		.shp11 { fill: #000000;stroke: #191818 } 
		.shp12 { fill: none;stroke: #000000;stroke-linejoin:round } 
		.shp13 { fill: #f8f3ed;stroke: #000000;stroke-linejoin:round } 
		.shp14 { fill: #8bb174;stroke: #000000 } 
		.shp15 { fill: #333333;stroke: #191818;stroke-linejoin:round } 
		.shp16 { fill: #da4e22;stroke: #000000 } 
	</style>
	<path id="Layer" class="shp0" d="M1073.3 1016.93C1029.55 944.49 953.67 920.45 928.74 913.73L928.74 913.73C927.05 909.06 925.64 904.29 924.54 899.45C923.43 894.61 922.62 889.71 922.11 884.77C921.61 879.83 921.41 874.86 921.51 869.89C921.62 864.93 922.03 859.97 922.74 855.06C928.39 816.25 937.61 753.17 938.51 748.56L750 821.89L558.27 886.31C561.91 889.31 609.39 931.82 638.58 958C642.28 961.32 645.77 964.86 649.03 968.6C652.29 972.35 655.32 976.29 658.1 980.4C660.88 984.52 663.4 988.81 665.66 993.23C667.91 997.66 669.89 1002.22 671.58 1006.89L671.58 1006.89C656.74 1028.02 613.86 1095.08 626.66 1178.73C638.75 1257.73 693.82 1307.73 730.49 1341.12C737.1 1347.12 743.91 1352.89 750.91 1358.43C757.91 1363.96 765.09 1369.26 772.45 1374.32C779.8 1379.37 787.33 1384.17 795.01 1388.72C802.69 1393.26 810.52 1397.54 818.49 1401.56C825.5 1406.59 833.03 1410.86 840.95 1414.29C848.86 1417.73 857.12 1420.31 865.59 1421.99C874.05 1423.68 882.67 1424.46 891.3 1424.32C899.93 1424.18 908.52 1423.12 916.92 1421.16C922.68 1419.82 933.76 1416.98 944.14 1413.78C948.72 1412.36 954.54 1410.55 961.2 1408.21L961.2 1408.21L962.3 1407.8L963.4 1407.41L963.4 1407.41C970.01 1404.94 975.64 1402.61 980.07 1400.76C990.07 1396.57 1000.42 1391.65 1005.7 1388.99C1013.41 1385.11 1020.68 1380.42 1027.39 1375C1034.1 1369.58 1040.22 1363.46 1045.63 1356.75C1051.05 1350.03 1055.74 1342.76 1059.61 1335.06C1063.49 1327.35 1066.54 1319.25 1068.7 1310.9C1072.25 1302.71 1075.52 1294.41 1078.5 1286C1081.49 1277.59 1084.19 1269.08 1086.6 1260.49C1089.01 1251.9 1091.13 1243.23 1092.96 1234.5C1094.79 1225.76 1096.32 1216.97 1097.55 1208.13C1104.37 1159.06 1114.61 1085.35 1073.3 1016.93Z" />
	<path id="Layer" class="shp1" d="M758.73 846.07C653.58 884.15 563.88 901.91 558.04 885.8C552.21 869.7 632.48 825.89 737.63 787.81C842.77 749.73 932.47 731.97 938.31 748.07C944.14 764.18 863.87 807.98 758.73 846.07Z" />
	<path id="Layer" class="shp2" d="M959 1447L958.91 1529.82C958.91 1536.01 965.57 1541.04 973.79 1541.05L974.09 1541.05C982.31 1541.05 988.99 1536.05 988.99 1529.85L989.08 1447.95C989.08 1447.42 982.13 1446.95 973.69 1446.95L959 1446.95" />
	<path id="Layer" class="shp2" d="M1749 1447L1748.91 1529.82C1748.91 1536.01 1755.57 1541.04 1763.79 1541.05L1764.09 1541.05C1772.31 1541.05 1778.99 1536.05 1778.99 1529.85L1779.08 1447.95C1779.08 1447.42 1772.08 1446.95 1763.69 1446.95L1749 1446.95" />
	<path id="Layer" class="shp3" d="M1825.5 1426.5L755.25 1426.5C753.84 1426.5 752.44 1426.78 751.14 1427.32C749.83 1427.86 748.65 1428.65 747.65 1429.65C746.65 1430.65 745.86 1431.83 745.32 1433.14C744.78 1434.44 744.5 1435.84 744.5 1437.25L744.5 1437.25C744.5 1438.66 744.78 1440.06 745.32 1441.36C745.86 1442.67 746.65 1443.85 747.65 1444.85C748.65 1445.85 749.83 1446.64 751.14 1447.18C752.44 1447.72 753.84 1448 755.25 1448L1815 1448C1816.43 1448 1817.85 1447.71 1819.17 1447.16C1820.49 1446.6 1821.68 1445.78 1822.68 1444.76C1823.69 1443.74 1824.47 1442.52 1825 1441.19C1825.52 1439.86 1825.77 1438.43 1825.74 1437L1825.5 1426.5Z" />
	<path id="Layer" class="shp4" d="M701.74 867.5C701.74 867.5 663.12 1015 669.56 1076.79C673.4 1113.67 672.2 1174.79 670.56 1218.19C670.05 1231.85 664.22 1244.78 654.32 1254.2C644.42 1263.63 631.22 1268.81 617.55 1268.64C603.87 1268.47 590.81 1262.97 581.14 1253.3C571.47 1243.63 565.97 1230.56 565.8 1216.89C565.53 1194.89 563.02 1178.15 565.3 1165.69C578.97 1090.88 558.03 1089.69 570.38 1021.43C572.49 1014.04 574.68 1006.61 576.94 999.14C588.76 960.14 601.71 923.89 615.44 888.53C630.18 887.14 646.64 882.76 664.37 878.8C678 875.76 690.47 871.22 701.74 867.5Z" />
	<path id="Layer" class="shp4" d="M719.77 1182.37C710.85 1182.37 704.32 1169.44 701.77 1164.37C684.18 1129.54 710.77 1068.78 721.09 1047.21C730.95 1069.41 755.41 1129.67 737.83 1164.37C735.17 1169.52 728.66 1182.37 719.77 1182.37Z" />
	<path id="Layer" class="shp5" d="M1915.78 1027C1805.03 931.17 1667.78 952.47 1647.99 955.87C1457.47 986.28 1303.37 1055.87 1279.78 1144.16C1278.57 1148.72 1277.42 1153.29 1276.32 1157.87C1275.23 1162.46 1274.19 1167.06 1273.22 1171.67C1272.24 1176.29 1271.33 1180.91 1270.47 1185.55C1269.61 1190.19 1268.82 1194.83 1268.08 1199.49C1220.93 1191.49 1141.79 1187.57 1095.7 1237.71L1095.47 1237.97C1082.38 1252.29 1091.56 1275.43 1110.86 1277.44C1122.42 1278.64 1136.31 1279.8 1151.97 1280.56C1184.48 1282.14 1254.06 1332.56 1297.63 1366.07C1304.34 1373.74 1311.79 1380.73 1319.87 1386.95C1327.94 1393.17 1336.61 1398.58 1345.74 1403.11C1354.87 1407.64 1364.42 1411.26 1374.26 1413.93C1384.1 1416.6 1394.17 1418.3 1404.34 1419L1405 1419C1417.09 1427.11 1449 1446.11 1493.17 1445.43C1498.97 1445.33 1504.76 1444.9 1510.51 1444.14C1516.27 1443.38 1521.97 1442.3 1527.6 1440.89C1533.23 1439.48 1538.77 1437.76 1544.21 1435.72C1549.64 1433.68 1554.95 1431.34 1560.12 1428.7L1720.5 1426.5C1794.74 1448.05 1854.35 1445.8 1890.68 1441.25C1942.89 1434.72 1962.49 1421.68 1971.26 1414.47C2001.56 1389.47 2012.59 1350.53 2020.39 1311.54C2036.41 1231.43 2010.61 1109.06 1915.78 1027Z" />
	<path id="Layer" class="shp5" d="M1267 1198C1257.62 1170.45 1243.34 1118.22 1242.12 1068.85C1241.89 1059.7 1241.99 1050.54 1242.4 1041.39C1242.81 1032.24 1243.55 1023.11 1244.59 1014.02C1245.64 1004.92 1247.01 995.86 1248.69 986.86C1250.37 977.86 1252.37 968.92 1254.67 960.06C1248.14 946.65 1242.52 932.82 1237.84 918.66C1233.16 904.5 1229.43 890.04 1226.68 875.38C1223.93 860.73 1222.16 845.9 1221.38 831.01C1220.61 816.11 1220.83 801.18 1222.05 786.32C1222.31 783.42 1223.3 780.63 1224.94 778.22C1226.58 775.81 1228.81 773.86 1231.42 772.56C1234.03 771.26 1236.92 770.64 1239.83 770.77C1242.74 770.91 1245.57 771.78 1248.05 773.32L1380.15 855.43C1392.39 852.11 1404.81 849.51 1417.35 847.66C1429.9 845.81 1442.54 844.7 1455.22 844.35C1467.89 844 1480.58 844.4 1493.2 845.56C1505.83 846.71 1518.38 848.61 1530.78 851.25L1650.59 753.25C1652.47 751.71 1654.72 750.69 1657.12 750.31C1659.52 749.92 1661.98 750.18 1664.24 751.06C1666.51 751.93 1668.5 753.39 1670.02 755.29C1671.54 757.19 1672.53 759.46 1672.88 761.86C1675.31 778.76 1676.78 795.78 1677.3 812.84C1677.82 829.9 1677.39 846.98 1675.99 863.99C1674.6 881 1672.26 897.92 1668.97 914.67C1665.68 931.42 1661.45 947.97 1656.31 964.25C1658.6 971.25 1660.47 978.38 1661.92 985.6C1663.38 992.82 1664.41 1000.12 1665.01 1007.46C1665.61 1014.8 1665.78 1022.17 1665.52 1029.53C1665.26 1036.89 1664.57 1044.23 1663.45 1051.51" />
	<path id="Layer" class="shp4" d="M583.29 1375.5L583 1375.5C583 1375.5 574.5 1375.39 566.56 1367.77C560.31 1361.77 565.71 1335.34 584.56 1304.69C600.66 1335.83 604.64 1361.82 598.72 1367.77C591.12 1375.46 583.29 1375.5 583.29 1375.5Z" />
	<path id="Layer" class="shp6" d="M2024.5 1260.5C2039.31 1267.32 2062.74 1280.91 2078.5 1306.5C2114.92 1365.65 2087.78 1452.26 2037.13 1497.83C2000.37 1530.91 1958.04 1536.11 1924.74 1540.4C1905.22 1542.91 1814.74 1554.18 1752.6 1497.83C1740.03 1486.43 1710.6 1459.72 1714.94 1426.7C1717.19 1409.7 1728.73 1387.01 1748.41 1380.7C1786.12 1368.56 1808.69 1430.87 1879.5 1438.53C1889.7 1439.63 1933.38 1443.11 1967.5 1415.53C1973.09 1411.01 1982.31 1402.53 1993.5 1383.53C2005 1364 2024.43 1323.52 2024.5 1260.5Z" />
	<path id="Layer" class="shp7" d="M1560.5 1428.5C1560.5 1428.5 1629.5 1396.5 1645.5 1334.5" />
	<path id="Layer" class="shp6" d="M1530.83 851.27L1650.64 753.27C1652.52 751.73 1654.77 750.71 1657.17 750.33C1659.57 749.94 1662.03 750.2 1664.29 751.08C1666.56 751.95 1668.55 753.41 1670.07 755.31C1671.59 757.21 1672.58 759.48 1672.93 761.88C1676.17 784.46 1677.06 807.34 1677.28 842.88C1677.5 878.42 1665 911 1656.5 964.5C1649.19 952.19 1640.96 940.45 1631.88 929.37C1622.8 918.3 1612.9 907.92 1602.27 898.34C1591.63 888.75 1580.28 879.99 1568.33 872.11C1556.37 864.23 1543.83 857.26 1530.83 851.27L1530.83 851.27Z" />
	<path id="Layer" class="shp7" d="M1408.5 1420.5C1406.73 1418.96 1399.67 1412.5 1399.5 1402.83C1399.39 1394.91 1404.02 1389.27 1405.5 1387.5C1417.68 1372.66 1439.32 1379.15 1464.5 1372.5C1476.41 1369.35 1492.86 1362.28 1510.5 1344.5" />
	<path id="Layer" class="shp6" d="M1452.5 1115.5C1367.89 1115.5 1299.5 1063.2 1299.5 998.5C1299.5 933.8 1367.89 881.5 1452.5 881.5C1537.11 881.5 1605.5 933.8 1605.5 998.5C1605.5 1063.2 1537.11 1115.5 1452.5 1115.5Z" />
	<path id="Layer" class="shp8" d="M1355 1022.5C1337.58 1022.5 1323.5 1008.42 1323.5 991C1323.5 973.58 1337.58 959.5 1355 959.5C1372.42 959.5 1386.5 973.58 1386.5 991C1386.5 1008.42 1372.42 1022.5 1355 1022.5Z" />
	<path id="Layer" class="shp9" d="M1672.5 762.5C1672.5 762.5 1602.5 857.5 1595.5 879.5C1590.26 895.95 1614.12 887.8 1626.5 882.64C1627.04 882.42 1627.63 882.36 1628.19 882.49C1628.76 882.61 1629.28 882.89 1629.68 883.31C1630.07 883.73 1630.34 884.27 1630.43 884.84C1630.52 885.41 1630.44 886 1630.19 886.52L1621.89 904.05C1621.36 905.17 1621.17 906.43 1621.34 907.66C1621.52 908.9 1622.05 910.05 1622.88 910.98C1623.7 911.91 1624.79 912.58 1625.99 912.9C1627.19 913.22 1628.46 913.18 1629.64 912.79L1639.55 909.49C1640.07 909.31 1640.64 909.29 1641.17 909.43C1641.71 909.57 1642.19 909.85 1642.57 910.26C1642.94 910.66 1643.19 911.16 1643.29 911.71C1643.39 912.25 1643.32 912.81 1643.11 913.32L1639.52 930.5L1656.52 964.5C1661.59 948.24 1665.75 931.71 1668.98 914.99C1672.21 898.27 1674.5 881.38 1675.84 864.4C1677.19 847.42 1677.58 830.38 1677.03 813.36C1676.47 796.33 1674.97 779.35 1672.52 762.5L1672.5 762.5Z" />
	<path id="Layer" class="shp6" d="M1379.5 855.5C1335.64 828.31 1290.15 799.4 1246.29 772.21C1237.22 766.59 1222.63 773.83 1222.5 784.5C1222.23 807.31 1218.5 832.6 1225.5 867.5C1229.27 886.34 1230.95 896.08 1234.76 909C1236.04 913.34 1237.41 917.65 1238.87 921.93C1240.34 926.21 1241.89 930.46 1243.54 934.68C1245.19 938.89 1246.93 943.07 1248.75 947.21C1250.58 951.34 1252.5 955.44 1254.5 959.5C1255.79 956.96 1257.13 954.45 1258.53 951.97C1259.93 949.48 1261.38 947.03 1262.88 944.61C1264.38 942.19 1265.93 939.81 1267.54 937.45C1269.14 935.1 1270.8 932.78 1272.5 930.5C1278.25 922.79 1299.06 896.08 1336.5 874.5C1339.9 872.54 1343.36 870.68 1346.86 868.9C1350.36 867.13 1353.91 865.44 1357.5 863.86C1361.09 862.27 1364.72 860.78 1368.39 859.39C1372.06 857.99 1375.76 856.7 1379.5 855.5Z" />
	<path id="Layer" class="shp10" d="M1222.5 782.5C1222.5 782.5 1297.88 848.44 1307.21 865.71C1307.76 866.71 1310.1 871.33 1308.37 873.42C1305.07 877.42 1290.96 867.34 1284.5 872.5C1284.34 872.63 1284.18 872.77 1284.03 872.92C1283.88 873.07 1283.74 873.22 1283.6 873.38C1283.46 873.55 1283.34 873.71 1283.22 873.89C1283.1 874.06 1282.98 874.24 1282.88 874.42C1282.52 875.1 1282.26 875.83 1282.1 876.58C1281.95 877.33 1281.9 878.1 1281.97 878.87C1282.04 879.64 1282.21 880.39 1282.49 881.11C1282.77 881.82 1283.16 882.49 1283.63 883.1C1285.79 885.97 1288.63 890.57 1288.36 894.94C1288.36 895.26 1288.33 895.58 1288.29 895.9C1288.24 896.22 1288.16 896.54 1288.06 896.84C1287.97 897.15 1287.85 897.45 1287.7 897.74C1287.56 898.03 1287.4 898.31 1287.21 898.57C1285.28 900.93 1281.69 900.95 1280.7 900.95C1274.15 900.95 1270.61 894.64 1270.45 894.35C1270.03 894.01 1269.55 893.74 1269.03 893.57C1268.51 893.39 1267.97 893.31 1267.43 893.32C1266.88 893.33 1266.34 893.44 1265.84 893.64C1265.33 893.83 1264.86 894.12 1264.45 894.48C1264.32 894.62 1264.2 894.76 1264.1 894.92C1263.99 895.07 1263.9 895.23 1263.82 895.4C1263.74 895.57 1263.67 895.75 1263.62 895.93C1263.57 896.11 1263.53 896.29 1263.51 896.48C1263.45 896.91 1263.43 897.34 1263.43 897.78C1263.44 898.21 1263.48 898.64 1263.55 899.07C1263.61 899.5 1263.72 899.92 1263.85 900.33C1263.98 900.75 1264.14 901.15 1264.33 901.54C1266.5 905.93 1263.96 920.09 1262.48 926.47C1261.92 928.85 1261.27 931.2 1260.53 933.52C1259.79 935.85 1258.96 938.14 1258.04 940.4C1257.12 942.66 1256.11 944.88 1255.01 947.06C1253.92 949.24 1252.74 951.38 1251.48 953.47C1242.48 933.81 1230.33 902.47 1224.48 864.47C1223.69 859.29 1223.02 854.08 1222.48 848.87C1221.93 843.65 1221.51 838.42 1221.22 833.18C1220.93 827.95 1220.77 822.7 1220.73 817.46C1220.69 812.22 1220.78 806.97 1220.99 801.73C1221.37 793.9 1222 787.3 1222.5 782.5Z" />
	<path id="Layer" class="shp11" d="M1355 1013.5C1342.56 1013.5 1332.5 1003.44 1332.5 991C1332.5 978.56 1342.56 968.5 1355 968.5C1367.44 968.5 1377.5 978.56 1377.5 991C1377.5 1003.44 1367.44 1013.5 1355 1013.5Z" />
	<path id="Layer" class="shp8" d="M1557 1022.5C1539.58 1022.5 1525.5 1008.42 1525.5 991C1525.5 973.58 1539.58 959.5 1557 959.5C1574.42 959.5 1588.5 973.58 1588.5 991C1588.5 1008.42 1574.42 1022.5 1557 1022.5Z" />
	<path id="Layer" class="shp11" d="M1557 1013.5C1544.56 1013.5 1534.5 1003.44 1534.5 991C1534.5 978.56 1544.56 968.5 1557 968.5C1569.44 968.5 1579.5 978.56 1579.5 991C1579.5 1003.44 1569.44 1013.5 1557 1013.5Z" />
	<path id="Layer" class="shp9" d="M1445.26 997.13L1455.5 998.5L1464.89 997.16C1465.3 997.1 1465.71 997.16 1466.08 997.33C1466.46 997.5 1466.77 997.77 1466.99 998.12C1467.22 998.46 1467.34 998.86 1467.34 999.27C1467.34 999.68 1467.22 1000.08 1467 1000.43L1457.91 1014.71C1457.64 1015.11 1457.28 1015.45 1456.85 1015.68C1456.42 1015.91 1455.95 1016.04 1455.46 1016.05C1454.97 1016.06 1454.49 1015.95 1454.06 1015.73C1453.63 1015.51 1453.25 1015.19 1452.97 1014.79L1443.2 1000.46C1442.97 1000.12 1442.84 999.71 1442.84 999.3C1442.83 998.89 1442.94 998.48 1443.16 998.13C1443.37 997.78 1443.69 997.5 1444.06 997.32C1444.43 997.14 1444.85 997.08 1445.26 997.13Z" />
	<path id="Layer" class="shp12" d="M1454.74 1016.08C1454.74 1016.08 1457.5 1033.5 1437.5 1031.5" />
	<path id="Layer" class="shp12" d="M1455.63 1017.08C1455.63 1017.08 1452.87 1034.5 1472.87 1032.5" />
	<path id="Layer" class="shp13" d="M1664.5 1001.5L1735 980" />
	<path id="Layer" class="shp13" d="M1667 1017L1733.5 1027.5" />
	<path id="Layer" class="shp13" d="M1244 1017L1183.5 1030.5" />
	<path id="Layer" class="shp13" d="M1246.5 1000.5L1180 990" />
	<path id="Layer" class="shp14" d="M497.79 404C542.36 424.37 593.09 470.11 653.5 528.48C746.29 618.14 804.3 762.91 822.5 817.48C816.73 820.16 792.27 774.8 786.5 777.48C767.23 724.74 729.23 638.63 647.5 554.48C580.7 485.7 522.5 434.81 475.5 412.48L497.79 404Z" />
	<path id="Layer" class="shp14" d="M745.55 850.16C670.87 787.16 566.29 710.67 531.41 697.27C441.63 662.77 361.93 647.72 310.32 647.21C315.87 641.52 321.42 635.83 326.99 630.15C375.99 629.93 446.6 643.54 525.99 671.15C557.83 682.24 679.71 761.63 766.99 841.8L745.55 850.16Z" />
	<path id="Layer" class="shp14" d="M823.54 819.3C805.78 795.4 763.98 722.16 739.62 698.53C727.49 686.78 714.86 675.56 701.77 664.88C688.69 654.21 675.15 644.09 661.21 634.56C647.26 625.03 632.92 616.1 618.22 607.79C603.52 599.47 588.47 591.79 573.12 584.75L550.81 593.19C567.83 601.31 584.48 610.18 600.72 619.78C616.95 629.37 632.74 639.69 648.06 650.7C663.37 661.7 678.19 673.38 692.46 685.7C706.74 698.02 720.46 710.98 733.58 724.52C751.28 742.81 788.02 810.29 802 828.52L823.54 819.3Z" />
	<path id="Layer" class="shp6" d="M1479.5 1367.5L1513.5 1443.5C1509.26 1443.98 1505.01 1444.32 1500.75 1444.52C1496.49 1444.72 1492.23 1444.78 1487.97 1444.69C1483.7 1444.61 1479.44 1444.39 1475.2 1444.02C1470.95 1443.65 1466.71 1443.15 1462.5 1442.5C1458.29 1441.85 1433.31 1439.11 1413.91 1424.5C1400.43 1414.38 1399.79 1407.25 1399.62 1405.12C1398.84 1395.38 1405.26 1388.49 1407.75 1386.12L1408.5 1385.44C1417.5 1377.58 1433.5 1376.51 1434.5 1376.44C1444.74 1375.81 1458.89 1373.16 1479.5 1367.5Z" />
	<path id="Layer" class="shp15" d="M1173.28 1285.23L1203.5 1195.5C1198.38 1195.42 1193.27 1195.6 1188.17 1196.03C1183.07 1196.45 1177.99 1197.13 1172.96 1198.05C1167.93 1198.97 1162.94 1200.14 1158.02 1201.55C1153.1 1202.96 1148.26 1204.61 1143.5 1206.5C1140.07 1207.93 1136.7 1209.49 1133.38 1211.17C1130.07 1212.85 1126.82 1214.66 1123.64 1216.58C1120.46 1218.51 1117.36 1220.55 1114.33 1222.7C1111.3 1224.86 1108.36 1227.13 1105.5 1229.5C1104.5 1230.35 1090.5 1242.38 1090 1253.97C1090 1254.6 1090 1255.19 1090 1255.23C1090.23 1265 1097.33 1271.23 1100.06 1273.23L1100.88 1273.83C1109.25 1279.75 1119.46 1279.09 1134.51 1279.46C1143 1279.67 1147.24 1279.78 1152.51 1280.46C1154.27 1280.69 1156.03 1280.97 1157.78 1281.28C1159.53 1281.6 1161.27 1281.96 1163.01 1282.36C1164.74 1282.75 1166.46 1283.19 1168.18 1283.67C1169.89 1284.15 1171.59 1284.67 1173.28 1285.23Z" />
	<path id="Layer" class="shp16" d="M292.3 344.49L264.25 329.19C260.77 327.29 257.59 324.89 254.81 322.07C252.04 319.25 249.69 316.03 247.85 312.52C246.01 309.01 244.69 305.25 243.95 301.36C243.2 297.47 243.03 293.49 243.45 289.55L245.8 267.34C246.27 262.9 247.22 258.53 248.63 254.29C250.04 250.06 251.9 245.99 254.19 242.16C256.48 238.33 259.17 234.75 262.23 231.5C265.29 228.25 268.69 225.34 272.37 222.82L272.37 222.82C274.5 221.36 276.82 220.19 279.26 219.33C281.7 218.48 284.24 217.95 286.81 217.75C289.39 217.56 291.98 217.7 294.52 218.19C297.06 218.67 299.52 219.48 301.85 220.6C302.52 220.91 303.2 221.22 303.89 221.51C304.57 221.81 305.25 222.1 305.94 222.37C306.64 222.65 307.33 222.92 308.03 223.17C308.72 223.43 309.43 223.68 310.13 223.92C318.24 226.79 326.19 230.1 333.94 233.84C341.69 237.58 349.23 241.74 356.52 246.31C363.81 250.88 370.85 255.85 377.6 261.19C384.34 266.53 390.79 272.24 396.91 278.29L353.44 357.12L292.3 344.49Z" />
	<path id="Layer" class="shp16" d="M318.73 318L318.04 318.05C313.67 318.37 309.39 319.38 305.34 321.06C301.3 322.74 297.55 325.05 294.24 327.92C290.92 330.78 288.09 334.16 285.85 337.92C283.61 341.68 281.98 345.77 281.04 350.05L278.36 362.17C276.98 368.4 276.73 374.82 277.61 381.13C278.49 387.45 280.49 393.56 283.52 399.17C286.55 404.78 290.55 409.81 295.35 414.01C300.14 418.22 305.65 421.53 311.61 423.8L394.1 455.2L406.8 365L349.8 326.31C347.54 324.78 345.15 323.43 342.67 322.3C340.18 321.16 337.61 320.23 334.97 319.53C332.33 318.82 329.63 318.34 326.91 318.08C324.19 317.83 321.46 317.8 318.73 318Z" />
	<path id="Layer" class="shp16" d="M465 262.82L432.87 220.23C429.82 216.18 426.21 212.58 422.15 209.55C418.09 206.51 413.62 204.07 408.88 202.28C404.13 200.5 399.16 199.4 394.1 199.01C389.05 198.63 383.96 198.96 379 200L368.47 202.21C363.38 203.27 358.62 205.57 354.64 208.91C350.65 212.26 347.55 216.53 345.61 221.36C343.67 226.19 342.96 231.42 343.53 236.59C344.1 241.76 345.94 246.71 348.89 251L375.89 289.3L460.5 319.91L465 262.82Z" />
	<path id="Layer" class="shp8" d="M395.47 400.31C359.45 400.31 330.34 371.2 330.34 335.18C330.34 299.16 359.45 270.05 395.47 270.05C431.49 270.05 460.6 299.16 460.6 335.18C460.6 371.2 431.49 400.31 395.47 400.31Z" />
	<path id="Layer" class="shp16" d="M410.35 262.8L407.17 287.23C405.9 296.94 408.22 306.15 413.67 313.05L457.33 368.33L482.93 435.12C484.25 432.86 485.53 430.58 486.75 428.27C487.98 425.96 489.16 423.63 490.28 421.27C491.41 418.91 492.49 416.53 493.52 414.12C494.55 411.72 495.53 409.29 496.46 406.85C497.39 404.41 506.12 379.67 505.01 349.24C503.01 292.76 463.16 247.83 456.5 240.5C455.8 239.65 455.03 238.85 454.2 238.12C453.37 237.39 452.48 236.73 451.55 236.13C450.62 235.54 449.64 235.02 448.63 234.58C447.62 234.14 446.57 233.78 445.5 233.5C437.18 231.5 430.27 235.91 426.68 238.19C414.7 245.8 411.24 258.85 410.35 262.8Z" />
	<path id="Layer" class="shp16" d="M393 455.33L343.6 432.5C338.59 430.18 334.08 426.9 330.32 422.85C326.56 418.81 323.63 414.06 321.69 408.9C319.74 403.73 318.82 398.23 318.98 392.71C319.13 387.19 320.36 381.75 322.6 376.7L332.87 353.52C335.71 347.11 339.74 341.28 344.73 336.35C349.72 331.43 355.6 327.48 362.05 324.72C368.5 321.96 375.41 320.44 382.43 320.24C389.44 320.03 396.43 321.14 403.03 323.52L462.21 344.87C468.07 346.99 473.53 350.1 478.34 354.06C483.16 358.02 487.26 362.78 490.46 368.13C493.67 373.47 495.94 379.33 497.17 385.44C498.4 391.55 498.58 397.83 497.69 404L497.69 404C497.02 407.16 496.15 410.28 495.07 413.32C493.99 416.37 492.7 419.34 491.23 422.22C489.75 425.09 488.08 427.87 486.23 430.52C484.39 433.17 482.36 435.7 480.18 438.08C457.44 462.43 425.07 461.08 419.31 460.8C417.06 460.7 414.82 460.51 412.59 460.23C410.36 459.95 408.14 459.58 405.93 459.12C403.73 458.67 401.55 458.12 399.39 457.49C397.23 456.85 395.1 456.13 393 455.33Z" />
	<path id="Layer" class="shp16" d="M220.48 538.45L216.38 524.3C215.1 519.88 214.59 515.26 214.89 510.66C215.18 506.07 216.27 501.56 218.11 497.33C219.94 493.1 222.5 489.23 225.66 485.88C228.81 482.52 232.53 479.74 236.64 477.66L236.64 477.66C240.33 475.79 244.26 474.45 248.32 473.66C252.38 472.87 256.52 472.65 260.64 473C264.76 473.35 268.81 474.28 272.68 475.74C276.55 477.2 280.19 479.2 283.51 481.66C296.1 485.88 353.06 506.48 382.32 566.15C384.85 571.34 387.09 576.67 389.05 582.11C391.01 587.54 392.67 593.08 394.04 598.69C395.4 604.3 396.47 609.99 397.22 615.71C397.98 621.44 398.43 627.2 398.57 632.98C398.6 634.46 398.22 635.92 397.49 637.21C396.76 638.49 395.7 639.56 394.41 640.29C393.13 641.03 391.67 641.41 390.19 641.38C388.71 641.36 387.26 640.94 386 640.17L220.48 538.45Z" />
	<path id="Layer" class="shp16" d="M173.88 677.25L191 690C192.28 690.95 193.58 691.86 194.9 692.73C196.23 693.61 197.58 694.45 198.95 695.25C200.32 696.05 201.71 696.82 203.12 697.54C204.54 698.27 205.97 698.95 207.42 699.6C209.16 700.37 210.91 701.11 212.68 701.82C214.44 702.53 216.22 703.21 218.01 703.86C219.79 704.52 221.59 705.14 223.4 705.73C225.21 706.33 227.02 706.89 228.85 707.43C244.66 712.07 283.66 723.49 327.03 707.53C360.29 695.29 380.96 672.53 391.74 657.67C392.48 656.68 392.95 655.51 393.09 654.27C393.23 653.04 393.04 651.8 392.55 650.66C392.05 649.53 391.26 648.54 390.25 647.81C389.25 647.08 388.07 646.63 386.84 646.51L198.54 625.16C195.23 624.78 191.88 624.91 188.61 625.55C185.34 626.18 182.19 627.3 179.26 628.88C176.33 630.46 173.65 632.47 171.32 634.86C169 637.24 167.05 639.96 165.54 642.93C164.11 645.8 163.2 648.9 162.84 652.09C162.48 655.27 162.69 658.5 163.45 661.61C164.2 664.73 165.5 667.69 167.28 670.35C169.06 673.02 171.29 675.35 173.88 677.25L173.88 677.25Z" />
	<path id="Layer" class="shp16" d="M160.14 576L160.14 576C161.21 580.47 162.75 584.81 164.75 588.94C166.74 593.08 169.18 596.99 172.01 600.6C174.84 604.21 178.05 607.51 181.59 610.44C185.13 613.36 188.98 615.9 193.06 618L250.48 647.55C254.33 649.06 259.96 651.16 266.85 653.37C270.52 654.56 274.21 655.67 277.92 656.7C281.63 657.73 285.37 658.68 289.12 659.55C292.88 660.42 296.65 661.2 300.44 661.91C304.23 662.61 308.03 663.23 311.85 663.77C339.12 667.01 369.21 658.41 386.29 652.36C387.94 651.78 389.45 650.87 390.75 649.7C392.05 648.53 393.1 647.11 393.85 645.53C394.6 643.96 395.03 642.24 395.12 640.5C395.21 638.75 394.95 637.01 394.36 635.36C384.14 607.07 369.08 590.78 360.59 582.9C344.91 568.35 325.88 558.64 310.67 550.9C308.26 549.67 305.84 548.47 303.4 547.31C300.97 546.14 298.51 545.01 296.05 543.9C293.58 542.8 291.1 541.73 288.6 540.69C286.11 539.65 283.6 538.64 281.08 537.67L232.18 524.16C228.18 523.06 224.09 522.36 219.96 522.05C215.83 521.75 211.67 521.85 207.56 522.35C203.45 522.85 199.39 523.74 195.45 525.03C191.51 526.31 187.71 527.98 184.09 530L179.18 532.74C175.48 534.81 172.14 537.46 169.29 540.59C166.44 543.73 164.12 547.3 162.41 551.18C160.71 555.06 159.64 559.19 159.25 563.4C158.87 567.62 159.17 571.88 160.14 576Z" />
	<path id="Layer" class="shp16" d="M525.79 497.88C524.3 497.85 522.83 498.15 521.47 498.76C520.11 499.37 518.91 500.27 517.94 501.4C516.97 502.53 516.26 503.85 515.86 505.29C515.46 506.72 515.38 508.22 515.63 509.69C519.63 533.37 529.81 585.61 543.97 598.81C562.44 616.03 592.12 715.18 674.67 694.27C731.35 679.91 713.93 620.75 697.43 585.05C695.16 580.12 692.55 575.35 689.62 570.79C686.68 566.22 683.44 561.86 679.9 557.74C676.36 553.62 672.54 549.76 668.47 546.17C664.39 542.59 660.07 539.29 655.54 536.3C651.02 533.35 646.39 530.56 641.67 527.93C636.95 525.31 632.14 522.85 627.24 520.57C622.35 518.29 617.37 516.18 612.33 514.25C607.28 512.32 602.17 510.57 597 509C591.23 507.25 585.41 505.71 579.53 504.37C573.66 503.03 567.74 501.89 561.78 500.96C555.83 500.03 549.84 499.31 543.84 498.79C537.84 498.28 531.82 497.98 525.79 497.88L525.79 497.88Z" />
	<path id="Layer" class="shp14" d="M857.63 805C860.5 803.5 830.5 512.5 746.5 400.5C662.5 288.5 642.5 270.5 642.5 270.5C642.5 270.5 640.5 355.5 676.5 415.5C712.5 475.5 754.5 575.5 766.5 597.5C778.5 619.5 822.5 820.5 822.5 820.5L857.63 805Z" />
</svg>